<mxfile host="app.diagrams.net" modified="2022-11-27T21:10:39.450Z" agent="5.0 (Macintosh; Intel Mac OS X 10_15_7) AppleWebKit/605.1.15 (KHTML, like Gecko) Version/16.1 Safari/605.1.15" etag="3uG4oCn24B8g8lMLKYrR" version="20.6.0" type="github" pages="3">
  <diagram id="2eSIhio7ax-TwMTem3YI" name="a">
    <mxGraphModel dx="830" dy="1704" grid="1" gridSize="10" guides="1" tooltips="1" connect="1" arrows="1" fold="1" page="1" pageScale="1" pageWidth="827" pageHeight="1169" math="0" shadow="0">
      <root>
        <mxCell id="0" />
        <mxCell id="1" parent="0" />
        <mxCell id="80YEqTwlPCmAUWT3thk7-24" value="" style="verticalLabelPosition=bottom;verticalAlign=top;html=1;shape=mxgraph.basic.patternFillRect;fillStyle=diag;step=5;fillStrokeWidth=0.2;fillStrokeColor=#dddddd;strokeColor=default;strokeWidth=1;fillColor=none;movable=0;resizable=0;rotatable=0;deletable=0;editable=0;connectable=0;" parent="1" vertex="1">
          <mxGeometry x="120" y="-130" width="620" height="710" as="geometry" />
        </mxCell>
        <mxCell id="80YEqTwlPCmAUWT3thk7-1" value="AWS Cloud" style="points=[[0,0],[0.25,0],[0.5,0],[0.75,0],[1,0],[1,0.25],[1,0.5],[1,0.75],[1,1],[0.75,1],[0.5,1],[0.25,1],[0,1],[0,0.75],[0,0.5],[0,0.25]];outlineConnect=0;gradientColor=none;html=1;whiteSpace=wrap;fontSize=12;fontStyle=0;container=1;pointerEvents=0;collapsible=0;recursiveResize=0;shape=mxgraph.aws4.group;grIcon=mxgraph.aws4.group_aws_cloud_alt;strokeColor=#232F3E;fillColor=none;verticalAlign=top;align=left;spacingLeft=30;fontColor=#232F3E;dashed=0;movable=0;resizable=0;rotatable=0;deletable=0;editable=0;connectable=0;" parent="1" vertex="1">
          <mxGeometry x="160" y="20" width="570" height="540" as="geometry" />
        </mxCell>
        <mxCell id="80YEqTwlPCmAUWT3thk7-2" value="VPC" style="points=[[0,0],[0.25,0],[0.5,0],[0.75,0],[1,0],[1,0.25],[1,0.5],[1,0.75],[1,1],[0.75,1],[0.5,1],[0.25,1],[0,1],[0,0.75],[0,0.5],[0,0.25]];outlineConnect=0;gradientColor=none;html=1;whiteSpace=wrap;fontSize=12;fontStyle=0;container=1;pointerEvents=0;collapsible=0;recursiveResize=0;shape=mxgraph.aws4.group;grIcon=mxgraph.aws4.group_vpc;strokeColor=#248814;fillColor=none;verticalAlign=top;align=left;spacingLeft=30;fontColor=#AAB7B8;dashed=0;movable=0;resizable=0;rotatable=0;deletable=0;editable=0;connectable=0;" parent="80YEqTwlPCmAUWT3thk7-1" vertex="1">
          <mxGeometry x="40" y="120" width="420" height="400" as="geometry" />
        </mxCell>
        <mxCell id="XSrsZYL11jbBIu84cVBc-6" style="edgeStyle=orthogonalEdgeStyle;rounded=0;orthogonalLoop=1;jettySize=auto;html=1;entryX=0.575;entryY=0.347;entryDx=0;entryDy=0;entryPerimeter=0;fontSize=20;startArrow=none;startFill=0;endArrow=classic;endFill=1;exitX=0;exitY=0.5;exitDx=0;exitDy=0;exitPerimeter=0;movable=0;resizable=0;rotatable=0;deletable=0;editable=0;connectable=0;" parent="80YEqTwlPCmAUWT3thk7-2" edge="1">
          <mxGeometry relative="1" as="geometry">
            <mxPoint x="226" y="149.16000000000008" as="sourcePoint" />
            <mxPoint x="160" y="200" as="targetPoint" />
            <Array as="points">
              <mxPoint x="226" y="140" />
              <mxPoint x="160" y="140" />
            </Array>
          </mxGeometry>
        </mxCell>
        <mxCell id="XSrsZYL11jbBIu84cVBc-5" style="edgeStyle=orthogonalEdgeStyle;rounded=0;orthogonalLoop=1;jettySize=auto;html=1;entryX=0.575;entryY=0.347;entryDx=0;entryDy=0;entryPerimeter=0;fontSize=20;startArrow=none;startFill=0;endArrow=classic;endFill=1;exitX=0;exitY=0.5;exitDx=0;exitDy=0;exitPerimeter=0;movable=0;resizable=0;rotatable=0;deletable=0;editable=0;connectable=0;" parent="80YEqTwlPCmAUWT3thk7-2" edge="1">
          <mxGeometry relative="1" as="geometry">
            <mxPoint x="316" y="49.16" as="sourcePoint" />
            <mxPoint x="250" y="99.99999999999991" as="targetPoint" />
            <Array as="points">
              <mxPoint x="316" y="50.16" />
              <mxPoint x="250" y="50.16" />
            </Array>
          </mxGeometry>
        </mxCell>
        <mxCell id="80YEqTwlPCmAUWT3thk7-7" value="" style="sketch=0;points=[[0,0,0],[0.25,0,0],[0.5,0,0],[0.75,0,0],[1,0,0],[0,1,0],[0.25,1,0],[0.5,1,0],[0.75,1,0],[1,1,0],[0,0.25,0],[0,0.5,0],[0,0.75,0],[1,0.25,0],[1,0.5,0],[1,0.75,0]];outlineConnect=0;fontColor=#232F3E;gradientColor=#F78E04;gradientDirection=north;fillColor=#D05C17;strokeColor=#ffffff;dashed=0;verticalLabelPosition=bottom;verticalAlign=top;align=center;html=1;fontSize=12;fontStyle=0;aspect=fixed;shape=mxgraph.aws4.resourceIcon;resIcon=mxgraph.aws4.lambda;movable=0;resizable=0;rotatable=0;deletable=0;editable=0;connectable=0;" parent="80YEqTwlPCmAUWT3thk7-2" vertex="1">
          <mxGeometry x="214" y="100" width="78" height="78" as="geometry" />
        </mxCell>
        <mxCell id="80YEqTwlPCmAUWT3thk7-8" value="" style="sketch=0;points=[[0,0,0],[0.25,0,0],[0.5,0,0],[0.75,0,0],[1,0,0],[0,1,0],[0.25,1,0],[0.5,1,0],[0.75,1,0],[1,1,0],[0,0.25,0],[0,0.5,0],[0,0.75,0],[1,0.25,0],[1,0.5,0],[1,0.75,0]];outlineConnect=0;fontColor=#232F3E;gradientColor=#945DF2;gradientDirection=north;fillColor=#5A30B5;strokeColor=#ffffff;dashed=0;verticalLabelPosition=bottom;verticalAlign=top;align=center;html=1;fontSize=12;fontStyle=0;aspect=fixed;shape=mxgraph.aws4.resourceIcon;resIcon=mxgraph.aws4.managed_streaming_for_kafka;movable=0;resizable=0;rotatable=0;deletable=0;editable=0;connectable=0;" parent="80YEqTwlPCmAUWT3thk7-2" vertex="1">
          <mxGeometry x="118" y="200" width="78" height="78" as="geometry" />
        </mxCell>
        <mxCell id="80YEqTwlPCmAUWT3thk7-9" value="" style="sketch=0;points=[[0,0,0],[0.25,0,0],[0.5,0,0],[0.75,0,0],[1,0,0],[0,1,0],[0.25,1,0],[0.5,1,0],[0.75,1,0],[1,1,0],[0,0.25,0],[0,0.5,0],[0,0.75,0],[1,0.25,0],[1,0.5,0],[1,0.75,0]];outlineConnect=0;fontColor=#232F3E;gradientColor=#4D72F3;gradientDirection=north;fillColor=#3334B9;strokeColor=#ffffff;dashed=0;verticalLabelPosition=bottom;verticalAlign=top;align=center;html=1;fontSize=12;fontStyle=0;aspect=fixed;shape=mxgraph.aws4.resourceIcon;resIcon=mxgraph.aws4.documentdb_with_mongodb_compatibility;movable=0;resizable=0;rotatable=0;deletable=0;editable=0;connectable=0;" parent="80YEqTwlPCmAUWT3thk7-2" vertex="1">
          <mxGeometry x="20" y="300" width="78" height="78" as="geometry" />
        </mxCell>
        <mxCell id="aj8fw83w1wCWJxkwPdOt-1" value="" style="shape=image;imageAspect=0;aspect=fixed;verticalLabelPosition=bottom;verticalAlign=top;strokeColor=default;strokeWidth=1;fontSize=20;fillColor=none;image=https://cdn.cdnlogo.com/logos/r/32/rabbitmq.svg;movable=0;resizable=0;rotatable=0;deletable=0;editable=0;connectable=0;" parent="80YEqTwlPCmAUWT3thk7-2" vertex="1">
          <mxGeometry x="290" width="90" height="90" as="geometry" />
        </mxCell>
        <mxCell id="XSrsZYL11jbBIu84cVBc-1" style="edgeStyle=orthogonalEdgeStyle;rounded=0;orthogonalLoop=1;jettySize=auto;html=1;entryX=0;entryY=0.5;entryDx=0;entryDy=0;entryPerimeter=0;fontSize=20;startArrow=classic;startFill=1;endArrow=none;endFill=0;movable=0;resizable=0;rotatable=0;deletable=0;editable=0;connectable=0;" parent="80YEqTwlPCmAUWT3thk7-2" source="80YEqTwlPCmAUWT3thk7-9" target="80YEqTwlPCmAUWT3thk7-8" edge="1">
          <mxGeometry relative="1" as="geometry">
            <Array as="points">
              <mxPoint x="59" y="239" />
            </Array>
          </mxGeometry>
        </mxCell>
        <mxCell id="hjCO6KmiJsFAoQFmWy3J-1" style="edgeStyle=orthogonalEdgeStyle;rounded=0;orthogonalLoop=1;jettySize=auto;html=1;entryX=0.514;entryY=0.601;entryDx=0;entryDy=0;entryPerimeter=0;fontSize=20;startArrow=none;startFill=0;endArrow=classic;endFill=1;movable=0;resizable=0;rotatable=0;deletable=0;editable=0;connectable=0;" parent="80YEqTwlPCmAUWT3thk7-2" source="80YEqTwlPCmAUWT3thk7-7" edge="1">
          <mxGeometry relative="1" as="geometry">
            <mxPoint x="300" y="143" as="sourcePoint" />
            <mxPoint x="334.96000000000004" y="80" as="targetPoint" />
            <Array as="points">
              <mxPoint x="335" y="143" />
            </Array>
          </mxGeometry>
        </mxCell>
        <mxCell id="hjCO6KmiJsFAoQFmWy3J-2" style="edgeStyle=orthogonalEdgeStyle;rounded=0;orthogonalLoop=1;jettySize=auto;html=1;entryX=0.514;entryY=0.601;entryDx=0;entryDy=0;entryPerimeter=0;fontSize=20;startArrow=none;startFill=0;endArrow=classic;endFill=1;exitX=0.444;exitY=0.7;exitDx=0;exitDy=0;exitPerimeter=0;movable=0;resizable=0;rotatable=0;deletable=0;editable=0;connectable=0;" parent="80YEqTwlPCmAUWT3thk7-2" source="80YEqTwlPCmAUWT3thk7-24" edge="1">
          <mxGeometry relative="1" as="geometry">
            <mxPoint x="214" y="241" as="sourcePoint" />
            <mxPoint x="256.96000000000004" y="178" as="targetPoint" />
            <Array as="points">
              <mxPoint x="257" y="241" />
            </Array>
          </mxGeometry>
        </mxCell>
        <mxCell id="hjCO6KmiJsFAoQFmWy3J-3" style="edgeStyle=orthogonalEdgeStyle;rounded=0;orthogonalLoop=1;jettySize=auto;html=1;entryX=0.514;entryY=0.601;entryDx=0;entryDy=0;entryPerimeter=0;fontSize=20;startArrow=none;startFill=0;endArrow=classic;endFill=1;exitX=0.444;exitY=0.7;exitDx=0;exitDy=0;exitPerimeter=0;movable=0;resizable=0;rotatable=0;deletable=0;editable=0;connectable=0;" parent="80YEqTwlPCmAUWT3thk7-2" edge="1">
          <mxGeometry relative="1" as="geometry">
            <mxPoint x="98" y="341" as="sourcePoint" />
            <mxPoint x="159.68000000000006" y="278" as="targetPoint" />
            <Array as="points">
              <mxPoint x="159.72000000000003" y="341" />
            </Array>
          </mxGeometry>
        </mxCell>
        <mxCell id="m-8g1Okldm_rK_gVp7M8-1" value="Java8 Runtime&lt;br&gt;MicroService" style="text;html=1;strokeColor=none;fillColor=none;align=center;verticalAlign=middle;whiteSpace=wrap;rounded=0;movable=0;resizable=0;rotatable=0;deletable=0;editable=0;connectable=0;" parent="80YEqTwlPCmAUWT3thk7-2" vertex="1">
          <mxGeometry x="275" y="160" width="120" height="30" as="geometry" />
        </mxCell>
        <mxCell id="m-8g1Okldm_rK_gVp7M8-4" value="RabbitMQ" style="text;html=1;strokeColor=none;fillColor=none;align=center;verticalAlign=middle;whiteSpace=wrap;rounded=0;movable=0;resizable=0;rotatable=0;deletable=0;editable=0;connectable=0;" parent="80YEqTwlPCmAUWT3thk7-2" vertex="1">
          <mxGeometry x="369" y="71" width="60" height="30" as="geometry" />
        </mxCell>
        <mxCell id="XSrsZYL11jbBIu84cVBc-7" style="edgeStyle=orthogonalEdgeStyle;rounded=0;orthogonalLoop=1;jettySize=auto;html=1;entryX=0.575;entryY=0.347;entryDx=0;entryDy=0;entryPerimeter=0;fontSize=20;startArrow=none;startFill=0;endArrow=classic;endFill=1;exitX=0;exitY=0.5;exitDx=0;exitDy=0;exitPerimeter=0;movable=0;resizable=0;rotatable=0;deletable=0;editable=0;connectable=0;" parent="80YEqTwlPCmAUWT3thk7-1" edge="1">
          <mxGeometry relative="1" as="geometry">
            <mxPoint x="440" y="80.00000000000009" as="sourcePoint" />
            <mxPoint x="374" y="130.84" as="targetPoint" />
            <Array as="points">
              <mxPoint x="440" y="81" />
              <mxPoint x="374" y="81" />
            </Array>
          </mxGeometry>
        </mxCell>
        <mxCell id="hjCO6KmiJsFAoQFmWy3J-4" style="edgeStyle=orthogonalEdgeStyle;rounded=0;orthogonalLoop=1;jettySize=auto;html=1;entryX=0.514;entryY=0.601;entryDx=0;entryDy=0;entryPerimeter=0;fontSize=20;startArrow=none;startFill=0;endArrow=classic;endFill=1;exitX=1;exitY=0.556;exitDx=0;exitDy=0;exitPerimeter=0;movable=0;resizable=0;rotatable=0;deletable=0;editable=0;connectable=0;" parent="80YEqTwlPCmAUWT3thk7-1" source="aj8fw83w1wCWJxkwPdOt-1" edge="1">
          <mxGeometry relative="1" as="geometry">
            <mxPoint x="420" y="163" as="sourcePoint" />
            <mxPoint x="481.68000000000006" y="100" as="targetPoint" />
            <Array as="points">
              <mxPoint x="420" y="163" />
              <mxPoint x="482" y="163" />
            </Array>
          </mxGeometry>
        </mxCell>
        <mxCell id="m-8g1Okldm_rK_gVp7M8-5" value="API&lt;br&gt;RESful" style="text;html=1;strokeColor=none;fillColor=none;align=center;verticalAlign=middle;whiteSpace=wrap;rounded=0;movable=0;resizable=0;rotatable=0;deletable=0;editable=0;connectable=0;" parent="80YEqTwlPCmAUWT3thk7-1" vertex="1">
          <mxGeometry x="501" y="85" width="60" height="30" as="geometry" />
        </mxCell>
        <mxCell id="MAlbjWr5bg2-bVI9oFIk-1" value="" style="sketch=0;points=[[0,0,0],[0.25,0,0],[0.5,0,0],[0.75,0,0],[1,0,0],[0,1,0],[0.25,1,0],[0.5,1,0],[0.75,1,0],[1,1,0],[0,0.25,0],[0,0.5,0],[0,0.75,0],[1,0.25,0],[1,0.5,0],[1,0.75,0]];outlineConnect=0;fontColor=#232F3E;gradientColor=#F78E04;gradientDirection=north;fillColor=#D05C17;strokeColor=#ffffff;dashed=0;verticalLabelPosition=bottom;verticalAlign=top;align=center;html=1;fontSize=12;fontStyle=0;aspect=fixed;shape=mxgraph.aws4.resourceIcon;resIcon=mxgraph.aws4.fargate;movable=0;resizable=0;rotatable=0;deletable=0;editable=0;connectable=0;" parent="80YEqTwlPCmAUWT3thk7-1" vertex="1">
          <mxGeometry x="410" y="160" width="38" height="38" as="geometry" />
        </mxCell>
        <mxCell id="XSrsZYL11jbBIu84cVBc-13" style="edgeStyle=orthogonalEdgeStyle;rounded=0;orthogonalLoop=1;jettySize=auto;html=1;fontSize=20;startArrow=classic;startFill=1;endArrow=classic;endFill=1;entryX=0.5;entryY=0;entryDx=0;entryDy=0;entryPerimeter=0;movable=0;resizable=0;rotatable=0;deletable=0;editable=0;connectable=0;" parent="1" source="80YEqTwlPCmAUWT3thk7-20" target="80YEqTwlPCmAUWT3thk7-4" edge="1">
          <mxGeometry relative="1" as="geometry">
            <mxPoint x="639" y="-60" as="sourcePoint" />
            <mxPoint x="639" y="30" as="targetPoint" />
            <Array as="points" />
          </mxGeometry>
        </mxCell>
        <mxCell id="80YEqTwlPCmAUWT3thk7-20" value="users" style="sketch=0;outlineConnect=0;gradientColor=none;fontColor=#545B64;strokeColor=none;fillColor=#879196;dashed=0;verticalLabelPosition=bottom;verticalAlign=top;align=center;html=1;fontSize=20;fontStyle=0;aspect=fixed;shape=mxgraph.aws4.illustration_users;pointerEvents=1;strokeWidth=1;movable=0;resizable=0;rotatable=0;deletable=0;editable=0;connectable=0;" parent="1" vertex="1">
          <mxGeometry x="589" y="-120" width="100" height="100" as="geometry" />
        </mxCell>
        <mxCell id="80YEqTwlPCmAUWT3thk7-4" value="" style="sketch=0;points=[[0,0,0],[0.25,0,0],[0.5,0,0],[0.75,0,0],[1,0,0],[0,1,0],[0.25,1,0],[0.5,1,0],[0.75,1,0],[1,1,0],[0,0.25,0],[0,0.5,0],[0,0.75,0],[1,0.25,0],[1,0.5,0],[1,0.75,0]];outlineConnect=0;fontColor=#232F3E;gradientColor=#945DF2;gradientDirection=north;fillColor=#5A30B5;strokeColor=#ffffff;dashed=0;verticalLabelPosition=bottom;verticalAlign=top;align=center;html=1;fontSize=12;fontStyle=0;aspect=fixed;shape=mxgraph.aws4.resourceIcon;resIcon=mxgraph.aws4.api_gateway;movable=0;resizable=0;rotatable=0;deletable=0;editable=0;connectable=0;" parent="1" vertex="1">
          <mxGeometry x="600" y="40" width="78" height="78" as="geometry" />
        </mxCell>
        <mxCell id="m-8g1Okldm_rK_gVp7M8-2" value="MongoDB&lt;br&gt;Backend Data" style="text;html=1;strokeColor=none;fillColor=none;align=center;verticalAlign=middle;whiteSpace=wrap;rounded=0;movable=0;resizable=0;rotatable=0;deletable=0;editable=0;connectable=0;" parent="1" vertex="1">
          <mxGeometry x="272" y="503" width="110" height="30" as="geometry" />
        </mxCell>
        <mxCell id="m-8g1Okldm_rK_gVp7M8-3" value="Kafka" style="text;html=1;strokeColor=none;fillColor=none;align=center;verticalAlign=middle;whiteSpace=wrap;rounded=0;movable=0;resizable=0;rotatable=0;deletable=0;editable=0;connectable=0;" parent="1" vertex="1">
          <mxGeometry x="387" y="408" width="60" height="30" as="geometry" />
        </mxCell>
      </root>
    </mxGraphModel>
  </diagram>
  <diagram id="_IujOa0KkCjkC1U8XyZI" name="b">
    <mxGraphModel dx="830" dy="535" grid="1" gridSize="10" guides="1" tooltips="1" connect="1" arrows="1" fold="1" page="1" pageScale="1" pageWidth="827" pageHeight="1169" math="0" shadow="0">
      <root>
        <mxCell id="0" />
        <mxCell id="1" parent="0" />
        <mxCell id="mWtZTVX5eC7Ooi4CtseF-64" value="" style="rounded=0;whiteSpace=wrap;html=1;movable=0;resizable=0;rotatable=0;deletable=0;editable=0;connectable=0;" parent="1" vertex="1">
          <mxGeometry x="31" y="70" width="778" height="560" as="geometry" />
        </mxCell>
        <mxCell id="mWtZTVX5eC7Ooi4CtseF-12" value="VPC" style="points=[[0,0],[0.25,0],[0.5,0],[0.75,0],[1,0],[1,0.25],[1,0.5],[1,0.75],[1,1],[0.75,1],[0.5,1],[0.25,1],[0,1],[0,0.75],[0,0.5],[0,0.25]];outlineConnect=0;gradientColor=none;html=1;whiteSpace=wrap;fontSize=12;fontStyle=0;container=1;pointerEvents=0;collapsible=0;recursiveResize=0;shape=mxgraph.aws4.group;grIcon=mxgraph.aws4.group_vpc;strokeColor=#248814;fillColor=none;verticalAlign=top;align=left;spacingLeft=30;fontColor=#AAB7B8;dashed=0;movable=0;resizable=0;rotatable=0;deletable=0;editable=0;connectable=0;" parent="1" vertex="1">
          <mxGeometry x="40" y="80" width="760" height="540" as="geometry" />
        </mxCell>
        <mxCell id="mWtZTVX5eC7Ooi4CtseF-17" value="Private subnet" style="points=[[0,0],[0.25,0],[0.5,0],[0.75,0],[1,0],[1,0.25],[1,0.5],[1,0.75],[1,1],[0.75,1],[0.5,1],[0.25,1],[0,1],[0,0.75],[0,0.5],[0,0.25]];outlineConnect=0;gradientColor=none;html=1;whiteSpace=wrap;fontSize=12;fontStyle=0;container=1;pointerEvents=0;collapsible=0;recursiveResize=0;shape=mxgraph.aws4.group;grIcon=mxgraph.aws4.group_security_group;grStroke=0;strokeColor=#147EBA;fillColor=#E6F2F8;verticalAlign=top;align=left;spacingLeft=30;fontColor=#147EBA;dashed=0;movable=0;resizable=0;rotatable=0;deletable=0;editable=0;connectable=0;" parent="mWtZTVX5eC7Ooi4CtseF-12" vertex="1">
          <mxGeometry x="30" y="30" width="340" height="480" as="geometry" />
        </mxCell>
        <mxCell id="mWtZTVX5eC7Ooi4CtseF-19" value="Availability zone" style="sketch=0;outlineConnect=0;gradientColor=none;html=1;whiteSpace=wrap;fontSize=12;fontStyle=0;shape=mxgraph.aws4.group;grIcon=mxgraph.aws4.group_availability_zone;strokeColor=#545B64;fillColor=none;verticalAlign=top;align=left;spacingLeft=30;fontColor=#545B64;dashed=1;movable=0;resizable=0;rotatable=0;deletable=0;editable=0;connectable=0;" parent="mWtZTVX5eC7Ooi4CtseF-17" vertex="1">
          <mxGeometry x="10" y="387" width="320" height="80" as="geometry" />
        </mxCell>
        <mxCell id="mWtZTVX5eC7Ooi4CtseF-18" value="Availability zone" style="sketch=0;outlineConnect=0;gradientColor=none;html=1;whiteSpace=wrap;fontSize=12;fontStyle=0;shape=mxgraph.aws4.group;grIcon=mxgraph.aws4.group_availability_zone;strokeColor=#545B64;fillColor=none;verticalAlign=top;align=left;spacingLeft=30;fontColor=#545B64;dashed=1;movable=0;resizable=0;rotatable=0;deletable=0;editable=0;connectable=0;" parent="mWtZTVX5eC7Ooi4CtseF-17" vertex="1">
          <mxGeometry x="10" y="298" width="320" height="80" as="geometry" />
        </mxCell>
        <mxCell id="mWtZTVX5eC7Ooi4CtseF-16" value="Public subnet" style="points=[[0,0],[0.25,0],[0.5,0],[0.75,0],[1,0],[1,0.25],[1,0.5],[1,0.75],[1,1],[0.75,1],[0.5,1],[0.25,1],[0,1],[0,0.75],[0,0.5],[0,0.25]];outlineConnect=0;gradientColor=none;html=1;whiteSpace=wrap;fontSize=12;fontStyle=0;container=1;pointerEvents=0;collapsible=0;recursiveResize=0;shape=mxgraph.aws4.group;grIcon=mxgraph.aws4.group_security_group;grStroke=0;strokeColor=#248814;fillColor=#E9F3E6;verticalAlign=top;align=left;spacingLeft=30;fontColor=#248814;dashed=0;movable=0;resizable=0;rotatable=0;deletable=0;editable=0;connectable=0;" parent="mWtZTVX5eC7Ooi4CtseF-12" vertex="1">
          <mxGeometry x="390" y="30" width="340" height="300" as="geometry" />
        </mxCell>
        <mxCell id="mWtZTVX5eC7Ooi4CtseF-13" value="Availability zone" style="sketch=0;outlineConnect=0;gradientColor=none;html=1;whiteSpace=wrap;fontSize=12;fontStyle=0;shape=mxgraph.aws4.group;grIcon=mxgraph.aws4.group_availability_zone;strokeColor=#545B64;fillColor=none;verticalAlign=top;align=left;spacingLeft=30;fontColor=#545B64;dashed=1;movable=0;resizable=0;rotatable=0;deletable=0;editable=0;connectable=0;" parent="mWtZTVX5eC7Ooi4CtseF-12" vertex="1">
          <mxGeometry x="40" y="60" width="680" height="80" as="geometry" />
        </mxCell>
        <mxCell id="mWtZTVX5eC7Ooi4CtseF-14" value="Availability zone" style="sketch=0;outlineConnect=0;gradientColor=none;html=1;whiteSpace=wrap;fontSize=12;fontStyle=0;shape=mxgraph.aws4.group;grIcon=mxgraph.aws4.group_availability_zone;strokeColor=#545B64;fillColor=none;verticalAlign=top;align=left;spacingLeft=30;fontColor=#545B64;dashed=1;movable=0;resizable=0;rotatable=0;deletable=0;editable=0;connectable=0;" parent="mWtZTVX5eC7Ooi4CtseF-12" vertex="1">
          <mxGeometry x="40" y="149" width="680" height="80" as="geometry" />
        </mxCell>
        <mxCell id="mWtZTVX5eC7Ooi4CtseF-15" value="Availability zone" style="sketch=0;outlineConnect=0;gradientColor=none;html=1;whiteSpace=wrap;fontSize=12;fontStyle=0;shape=mxgraph.aws4.group;grIcon=mxgraph.aws4.group_availability_zone;strokeColor=#545B64;fillColor=none;verticalAlign=top;align=left;spacingLeft=30;fontColor=#545B64;dashed=1;movable=0;resizable=0;rotatable=0;deletable=0;editable=0;connectable=0;" parent="mWtZTVX5eC7Ooi4CtseF-12" vertex="1">
          <mxGeometry x="40" y="239" width="680" height="80" as="geometry" />
        </mxCell>
        <mxCell id="mWtZTVX5eC7Ooi4CtseF-65" value="North Virginia/Ohaio" style="text;html=1;strokeColor=none;fillColor=none;align=center;verticalAlign=middle;whiteSpace=wrap;rounded=0;movable=0;resizable=0;rotatable=0;deletable=0;editable=0;connectable=0;" parent="mWtZTVX5eC7Ooi4CtseF-12" vertex="1">
          <mxGeometry x="325" y="10" width="110" height="10" as="geometry" />
        </mxCell>
      </root>
    </mxGraphModel>
  </diagram>
  <diagram id="vi78Mrqn7E-Mgv-8n0bg" name="c">
    <mxGraphModel dx="1657" dy="535" grid="1" gridSize="10" guides="1" tooltips="1" connect="1" arrows="1" fold="1" page="1" pageScale="1" pageWidth="827" pageHeight="1169" math="0" shadow="0">
      <root>
        <mxCell id="0" />
        <mxCell id="1" parent="0" />
        <mxCell id="LSmRaalK0-2D8X_RdsmS-3" value="" style="rounded=0;whiteSpace=wrap;html=1;movable=0;resizable=0;rotatable=0;deletable=0;editable=0;connectable=0;" vertex="1" parent="1">
          <mxGeometry x="-17" y="110" width="297" height="380" as="geometry" />
        </mxCell>
        <mxCell id="a-tuO8HBzbW937ymj3ow-25" style="edgeStyle=orthogonalEdgeStyle;rounded=0;orthogonalLoop=1;jettySize=auto;html=1;exitX=0.5;exitY=1;exitDx=0;exitDy=0;entryX=1;entryY=0.5;entryDx=0;entryDy=0;movable=0;resizable=0;rotatable=0;deletable=0;editable=0;connectable=0;" parent="1" source="a-tuO8HBzbW937ymj3ow-3" target="a-tuO8HBzbW937ymj3ow-4" edge="1">
          <mxGeometry relative="1" as="geometry">
            <Array as="points">
              <mxPoint x="151" y="400" />
            </Array>
          </mxGeometry>
        </mxCell>
        <mxCell id="a-tuO8HBzbW937ymj3ow-3" value="" style="shape=image;verticalLabelPosition=bottom;labelBackgroundColor=default;verticalAlign=top;aspect=fixed;imageAspect=0;image=data:image/svg+xml,PHN2ZyB4bWxucz0iaHR0cDovL3d3dy53My5vcmcvMjAwMC9zdmciIGhlaWdodD0iMjUwMCIgd2lkdGg9IjIyNDkiIHZpZXdCb3g9IjguNSAxIDMzNC4xMDAwMDAwMDAwMDAxIDM2MyI+PGxpbmVhckdyYWRpZW50IHkyPSI5OSUiIHkxPSIzMCUiIHgyPSIxNzUuNSIgeDE9IjE3NS41IiBncmFkaWVudFVuaXRzPSJ1c2VyU3BhY2VPblVzZSIgaWQ9ImEiPjxzdG9wIHN0b3AtY29sb3I9IiNmMDVhMjgiIG9mZnNldD0iMCIvPjxzdG9wIHN0b3AtY29sb3I9IiNmYmNhMGEiIG9mZnNldD0iMSIvPjwvbGluZWFyR3JhZGllbnQ+PHBhdGggZmlsbD0idXJsKCNhKSIgZD0iTTM0MiAxNjEuMmMtLjYtNi4xLTEuNi0xMy4xLTMuNi0yMC45LTItNy43LTUtMTYuMi05LjQtMjVzLTEwLjEtMTcuOS0xNy41LTI2LjhjLTIuOS0zLjUtNi4xLTYuOS05LjUtMTAuMiA1LjEtMjAuMy02LjItMzcuOS02LjItMzcuOS0xOS41LTEuMi0zMS45IDYuMS0zNi41IDkuNC0uOC0uMy0xLjUtLjctMi4zLTEtMy4zLTEuMy02LjctMi42LTEwLjMtMy43LTMuNS0xLjEtNy4xLTIuMS0xMC44LTNzLTcuNC0xLjYtMTEuMi0yLjJjLS43LS4xLTEuMy0uMi0yLS4zQzIxNC4yIDEyLjQgMTg5LjggMSAxODkuOCAxYy0yNy4zIDE3LjMtMzIuNCA0MS41LTMyLjQgNDEuNXMtLjEuNS0uMyAxLjRjLTEuNS40LTMgLjktNC41IDEuMy0yLjEuNi00LjIgMS40LTYuMiAyLjItMi4xLjgtNC4xIDEuNi02LjIgMi41LTQuMSAxLjgtOC4yIDMuOC0xMi4yIDYtMy45IDIuMi03LjcgNC42LTExLjQgNy4xbC0xLS40Yy0zNy44LTE0LjQtNzEuMyAyLjktNzEuMyAyLjktMy4xIDQwLjIgMTUuMSA2NS41IDE4LjcgNzAuMS0uOSAyLjUtMS43IDUtMi41IDcuNS0yLjggOS4xLTQuOSAxOC40LTYuMiAyOC4xLS4yIDEuNC0uNCAyLjgtLjUgNC4yQzE4LjggMTkyLjcgOC41IDIyOCA4LjUgMjI4YzI5LjEgMzMuNSA2My4xIDM1LjYgNjMuMSAzNS42bC4xLS4xYzQuMyA3LjcgOS4zIDE1IDE0LjkgMjEuOSAyLjQgMi45IDQuOCA1LjYgNy40IDguMy0xMC42IDMwLjQgMS41IDU1LjYgMS41IDU1LjYgMzIuNCAxLjIgNTMuNy0xNC4yIDU4LjItMTcuNyAzLjIgMS4xIDYuNSAyLjEgOS44IDIuOSAxMCAyLjYgMjAuMiA0LjEgMzAuNCA0LjUgMi41LjEgNS4xLjIgNy42LjFoMy42bDEuNi0uMXYuMWMxNS4zIDIxLjggNDIuMSAyNC45IDQyLjEgMjQuOSAxOS4xLTIwLjEgMjAuMi00MC4xIDIwLjItNDQuNHYtLjMtLjYtLjljNC0yLjggNy44LTUuOCAxMS40LTkuMSA3LjYtNi45IDE0LjMtMTQuOCAxOS45LTIzLjNsMS41LTIuNGMyMS42IDEuMiAzNi45LTEzLjQgMzYuOS0xMy40LTMuNi0yMi41LTE2LjQtMzMuNS0xOS4xLTM1LjZzLS4xLS4xLS4zLS4yLS4yLS4yLS4yLS4yYy0uMS0uMS0uMy0uMi0uNS0uMy4xLTEuNC4yLTIuNy4zLTQuMS4yLTIuNC4yLTQuOS4yLTcuM3YtMy4yLS42bC0uMS0xLjUtLjEtMmMwLS43LS4xLTEuMy0uMi0xLjlzLS4xLTEuMy0uMi0xLjlsLS4yLTEuOS0uMy0xLjljLS40LTIuNS0uOC00LjktMS40LTcuNC0yLjMtOS43LTYuMS0xOC45LTExLTI3LjItNS04LjMtMTEuMi0xNS42LTE4LjMtMjEuOC03LTYuMi0xNC45LTExLjItMjMuMS0xNC45LTguMy0zLjctMTYuOS02LjEtMjUuNS03LjItNC4zLS42LTguNi0uOC0xMi45LS43aC0zLjJsLTEuNi4xYy0uNiAwLTEuMi4xLTEuNy4xLTIuMi4yLTQuNC41LTYuNS45LTguNiAxLjYtMTYuNyA0LjctMjMuOCA5cy0xMy4zIDkuNi0xOC4zIDE1LjYtOC45IDEyLjctMTEuNiAxOS42LTQuMiAxNC4xLTQuNiAyMWMtLjEgMS43LS4xIDMuNS0uMSA1LjJ2MS4zbC4xIDEuNGMuMS44LjEgMS43LjIgMi41LjMgMy41IDEgNi45IDEuOSAxMC4xIDEuOSA2LjUgNC45IDEyLjQgOC42IDE3LjRzOC4yIDkuMSAxMi45IDEyLjRjNC43IDMuMiA5LjggNS41IDE0LjggN3MxMCAyLjEgMTQuNyAyLjFoMi42Yy4zIDAgLjYgMCAuOS0uMS41IDAgMS0uMSAxLjUtLjEuMSAwIC4zIDAgLjQtLjFsLjUtLjFjLjMgMCAuNi0uMS45LS4xLjYtLjEgMS4xLS4yIDEuNy0uM3MxLjEtLjIgMS42LS40YzEuMS0uMiAyLjEtLjYgMy4xLS45IDItLjcgNC0xLjUgNS43LTIuNCAxLjgtLjkgMy40LTIgNS0zIC40LS4zLjktLjYgMS4zLTEgMS42LTEuMyAxLjktMy43LjYtNS4zLTEuMS0xLjQtMy4xLTEuOC00LjctLjlsLTEuMi42Yy0xLjQuNy0yLjggMS4zLTQuMyAxLjhzLTMuMS45LTQuNyAxLjJjLS44LjEtMS42LjItMi41LjMtLjQgMC0uOC4xLTEuMy4xaC0yLjRjLS41IDAtMSAwLTEuNS0uMUgyMTAuMmMtLjIgMC0uNSAwLS43LS4xLS41LS4xLS45LS4xLTEuNC0uMi0zLjctLjUtNy40LTEuNi0xMC45LTMuMi0zLjYtMS42LTctMy44LTEwLjEtNi42cy01LjgtNi4xLTcuOS05LjktMy42LTgtNC4zLTEyLjRjLS4zLTIuMi0uNS00LjUtLjQtNi43IDAtLjYuMS0xLjIuMS0xLjh2LS44YzAtLjMuMS0uNi4xLS45LjEtMS4yLjMtMi40LjUtMy42IDEuNy05LjYgNi41LTE5IDEzLjktMjYuMSAxLjktMS44IDMuOS0zLjQgNi00LjlzNC40LTIuOCA2LjgtMy45IDQuOC0yIDcuNC0yLjdjMi41LS43IDUuMS0xLjEgNy44LTEuNCAxLjMtLjEgMi42LS4yIDQtLjJoMy4xbDEuMS4xYzIuOS4yIDUuNy42IDguNSAxLjMgNS42IDEuMiAxMS4xIDMuMyAxNi4yIDYuMSAxMC4yIDUuNyAxOC45IDE0LjUgMjQuMiAyNS4xIDIuNyA1LjMgNC42IDExIDUuNSAxNi45LjIgMS41LjQgMyAuNSA0LjVsLjEgMS4xLjEgMS4xVjIxNy44YzAgLjctLjEgMS45LS4xIDIuNi0uMSAxLjYtLjMgMy4zLS41IDQuOXMtLjUgMy4yLS44IDQuOC0uNyAzLjItMS4xIDQuN2MtLjggMy4xLTEuOCA2LjItMyA5LjMtMi40IDYtNS42IDExLjgtOS40IDE3LjEtNy43IDEwLjYtMTguMiAxOS4yLTMwLjIgMjQuNy02IDIuNy0xMi4zIDQuNy0xOC44IDUuNy0zLjIuNi02LjUuOS05LjggMWgtNWMtMS44IDAtMy41LS4xLTUuMy0uMy03LS41LTEzLjktMS44LTIwLjctMy43LTYuNy0xLjktMTMuMi00LjYtMTkuNC03LjgtMTIuMy02LjYtMjMuNC0xNS42LTMyLTI2LjUtNC4zLTUuNC04LjEtMTEuMy0xMS4yLTE3LjRzLTUuNi0xMi42LTcuNC0xOS4xYy0xLjgtNi42LTIuOS0xMy4zLTMuNC0yMC4xbC0uMS0xLjN2LTUuNy0uNy0yLjVjLjEtMy4zLjQtNi44LjgtMTAuMnMxLTYuOSAxLjctMTAuMyAxLjUtNi44IDIuNS0xMC4yYzEuOS02LjcgNC4zLTEzLjIgNy4xLTE5LjMgNS43LTEyLjIgMTMuMS0yMy4xIDIyLTMxLjggMi4yLTIuMiA0LjUtNC4yIDYuOS02LjIgMi40LTEuOSA0LjktMy43IDcuNS01LjQgMi41LTEuNyA1LjItMy4yIDcuOS00LjYgMS4zLS43IDIuNy0xLjQgNC4xLTJsMi4xLS45IDIuMS0uOWMyLjgtMS4yIDUuNy0yLjIgOC43LTMuMS43LS4yIDEuNS0uNCAyLjItLjcuNy0uMiAxLjUtLjQgMi4yLS42IDEuNS0uNCAzLS44IDQuNS0xLjEuNy0uMiAxLjUtLjMgMi4zLS41czEuNS0uMyAyLjMtLjVjLjgtLjEgMS41LS4zIDIuMy0uNGwxLjEtLjIgMS4yLS4yYy44LS4xIDEuNS0uMiAyLjMtLjMuOS0uMSAxLjctLjIgMi42LS4zLjctLjEgMS45LS4yIDIuNi0uMy41LS4xIDEuMS0uMSAxLjYtLjJsMS4xLS4xLjUtLjFoLjZjLjktLjEgMS43LS4xIDIuNi0uMmwxLjMtLjFoMWMuNyAwIDEuNS0uMSAyLjItLjEgMi45LS4xIDUuOS0uMSA4LjggMCA1LjguMiAxMS41LjkgMTcgMS45IDExLjEgMi4xIDIxLjUgNS42IDMxIDEwLjMgOS41IDQuNiAxNy45IDEwLjMgMjUuMyAxNi41LjUuNC45LjggMS40IDEuMi40LjQuOS44IDEuMyAxLjIuOS44IDEuNyAxLjYgMi42IDIuNHMxLjcgMS42IDIuNSAyLjQgMS42IDEuNiAyLjQgMi41YzMuMSAzLjMgNiA2LjYgOC42IDEwIDUuMiA2LjcgOS40IDEzLjUgMTIuNyAxOS45bC42IDEuMi42IDEuMmMuNC44LjggMS42IDEuMSAyLjQuNC44LjcgMS41IDEuMSAyLjMuMy44LjcgMS41IDEgMi4zIDEuMiAzIDIuNCA1LjkgMy4zIDguNiAxLjUgNC40IDIuNiA4LjMgMy41IDExLjcuMyAxLjQgMS42IDIuMyAzIDIuMSAxLjUtLjEgMi42LTEuMyAyLjYtMi44LjEtMy42IDAtNy45LS41LTEyLjh6Ii8+PC9zdmc+;movable=0;resizable=0;rotatable=0;deletable=0;editable=0;connectable=0;" parent="1" vertex="1">
          <mxGeometry x="110" y="239.99999999999997" width="80.99" height="90" as="geometry" />
        </mxCell>
        <mxCell id="a-tuO8HBzbW937ymj3ow-4" value="" style="shape=image;verticalLabelPosition=bottom;labelBackgroundColor=default;verticalAlign=top;aspect=fixed;imageAspect=0;image=data:image/svg+xml,PHN2ZyB4bWxucz0iaHR0cDovL3d3dy53My5vcmcvMjAwMC9zdmciIHhtbDpzcGFjZT0icHJlc2VydmUiIHZpZXdCb3g9IjAgMCAxMTUuMzMzIDExNCIgaGVpZ2h0PSIxMTRweCIgd2lkdGg9IjExNS4zMzNweCIgeT0iMHB4IiB4PSIwcHgiIGlkPSJMYXllcl8xIiB2ZXJzaW9uPSIxLjEiPjxtZXRhZGF0YSBpZD0ibWV0YWRhdGE0NDk1Ij5pbWFnZS9zdmcreG1sPC9tZXRhZGF0YT48ZGVmcyBpZD0iZGVmczQ0OTMiLz48ZyBpZD0iTGF5ZXJfMiIvPjxwYXRoIGQ9Ik0gNTYuNjY3LDAuNjY3IEMgMjUuMzcyLDAuNjY3IDAsMjYuMDM2IDAsNTcuMzMyIGMgMCwzMS4yOTUgMjUuMzcyLDU2LjY2NiA1Ni42NjcsNTYuNjY2IDMxLjI5NSwwIDU2LjY2NiwtMjUuMzcxIDU2LjY2NiwtNTYuNjY2IDAsLTMxLjI5NiAtMjUuMzcyLC01Ni42NjUgLTU2LjY2NiwtNTYuNjY1IHogbSAwLDEwNi4wNTUgYyAtOC45MDQsMCAtMTYuMTIzLC01Ljk0OCAtMTYuMTIzLC0xMy4yODMgSCA3Mi43OSBjIDAsNy4zMzQgLTcuMjE5LDEzLjI4MyAtMTYuMTIzLDEzLjI4MyB6IE0gODMuMjk3LDg5LjA0IEggMzAuMDM0IFYgNzkuMzgyIEggODMuMjk4IFYgODkuMDQgWiBNIDgzLjEwNiw3NC40MTEgSCAzMC4xODYgQyAzMC4wMSw3NC4yMDggMjkuODMsNzQuMDA4IDI5LjY2LDczLjgwMiAyNC4yMDgsNjcuMTgyIDIyLjkyNCw2My43MjYgMjEuNjc3LDYwLjIwNCBjIC0wLjAyMSwtMC4xMTYgNi42MTEsMS4zNTUgMTEuMzE0LDIuNDEzIDAsMCAyLjQyLDAuNTYgNS45NTgsMS4yMDUgLTMuMzk3LC0zLjk4MiAtNS40MTQsLTkuMDQ0IC01LjQxNCwtMTQuMjE4IDAsLTExLjM1OSA4LjcxMiwtMjEuMjg1IDUuNTY5LC0yOS4zMDggMy4wNTksMC4yNDkgNi4zMzEsNi40NTYgNi41NTIsMTYuMTYxIDMuMjUyLC00LjQ5NCA0LjYxMywtMTIuNzAxIDQuNjEzLC0xNy43MzMgMCwtNS4yMSAzLjQzMywtMTEuMjYyIDYuODY3LC0xMS40NjkgLTMuMDYxLDUuMDQ1IDAuNzkzLDkuMzcgNC4yMTksMjAuMDk5IDEuMjg1LDQuMDMgMS4xMjEsMTAuODEyIDIuMTEzLDE1LjExMyBDIDYzLjc5NywzMy41MzQgNjUuMzMzLDIwLjUgNzEsMTYgYyAtMi41LDUuNjY3IDAuMzcsMTIuNzU4IDIuMzMzLDE2LjE2NyAzLjE2Nyw1LjUgNS4wODcsOS42NjcgNS4wODcsMTcuNTQ4IDAsNS4yODQgLTEuOTUxLDEwLjI1OSAtNS4yNDIsMTQuMTQ4IDMuNzQyLC0wLjcwMiA2LjMyNiwtMS4zMzUgNi4zMjYsLTEuMzM1IGwgMTIuMTUyLC0yLjM3MSBjIDEwZS00LC0xMGUtNCAtMS43NjUsNy4yNjEgLTguNTUsMTQuMjU0IHoiIGlkPSJwYXRoNDQ4NiIgc3R5bGU9ImZpbGw6I2U2NTIyYztmaWxsLW9wYWNpdHk6MSIvPjwvc3ZnPg==;movable=0;resizable=0;rotatable=0;deletable=0;editable=0;connectable=0;" parent="1" vertex="1">
          <mxGeometry x="54" y="360" width="80.7" height="80" as="geometry" />
        </mxCell>
        <mxCell id="a-tuO8HBzbW937ymj3ow-24" style="edgeStyle=orthogonalEdgeStyle;rounded=0;orthogonalLoop=1;jettySize=auto;html=1;entryX=0;entryY=0.5;entryDx=0;entryDy=0;movable=0;resizable=0;rotatable=0;deletable=0;editable=0;connectable=0;" parent="1" source="a-tuO8HBzbW937ymj3ow-6" target="a-tuO8HBzbW937ymj3ow-4" edge="1">
          <mxGeometry relative="1" as="geometry">
            <Array as="points">
              <mxPoint x="35" y="400" />
            </Array>
          </mxGeometry>
        </mxCell>
        <mxCell id="a-tuO8HBzbW937ymj3ow-6" value="" style="dashed=0;outlineConnect=0;html=1;align=center;labelPosition=center;verticalLabelPosition=bottom;verticalAlign=top;shape=mxgraph.weblogos.json;movable=0;resizable=0;rotatable=0;deletable=0;editable=0;connectable=0;" parent="1" vertex="1">
          <mxGeometry y="240" width="70" height="75.8" as="geometry" />
        </mxCell>
        <mxCell id="LSmRaalK0-2D8X_RdsmS-6" style="edgeStyle=orthogonalEdgeStyle;rounded=0;orthogonalLoop=1;jettySize=auto;html=1;entryX=0.5;entryY=0;entryDx=0;entryDy=0;movable=0;resizable=0;rotatable=0;deletable=0;editable=0;connectable=0;" edge="1" parent="1" source="a-tuO8HBzbW937ymj3ow-7" target="LSmRaalK0-2D8X_RdsmS-4">
          <mxGeometry relative="1" as="geometry">
            <Array as="points">
              <mxPoint x="235" y="49" />
            </Array>
          </mxGeometry>
        </mxCell>
        <mxCell id="a-tuO8HBzbW937ymj3ow-7" value="" style="dashed=0;outlineConnect=0;html=1;align=center;labelPosition=center;verticalLabelPosition=bottom;verticalAlign=top;shape=mxgraph.weblogos.github;movable=0;resizable=0;rotatable=0;deletable=0;editable=0;connectable=0;" parent="1" vertex="1">
          <mxGeometry x="299.99999999999994" y="11.5" width="75" height="75" as="geometry" />
        </mxCell>
        <mxCell id="a-tuO8HBzbW937ymj3ow-22" style="edgeStyle=orthogonalEdgeStyle;rounded=0;orthogonalLoop=1;jettySize=auto;html=1;movable=0;resizable=0;rotatable=0;deletable=0;editable=0;connectable=0;" parent="1" source="a-tuO8HBzbW937ymj3ow-14" target="a-tuO8HBzbW937ymj3ow-6" edge="1">
          <mxGeometry relative="1" as="geometry" />
        </mxCell>
        <mxCell id="a-tuO8HBzbW937ymj3ow-23" style="edgeStyle=orthogonalEdgeStyle;rounded=0;orthogonalLoop=1;jettySize=auto;html=1;movable=0;resizable=0;rotatable=0;deletable=0;editable=0;connectable=0;" parent="1" source="a-tuO8HBzbW937ymj3ow-14" target="a-tuO8HBzbW937ymj3ow-3" edge="1">
          <mxGeometry relative="1" as="geometry" />
        </mxCell>
        <mxCell id="a-tuO8HBzbW937ymj3ow-33" style="edgeStyle=orthogonalEdgeStyle;rounded=0;orthogonalLoop=1;jettySize=auto;html=1;movable=0;resizable=0;rotatable=0;deletable=0;editable=0;connectable=0;startArrow=none;" parent="1" source="a-tuO8HBzbW937ymj3ow-29" target="a-tuO8HBzbW937ymj3ow-7" edge="1">
          <mxGeometry relative="1" as="geometry" />
        </mxCell>
        <mxCell id="a-tuO8HBzbW937ymj3ow-14" value="" style="sketch=0;outlineConnect=0;fontColor=#232F3E;gradientColor=none;fillColor=#232F3D;strokeColor=none;dashed=0;verticalLabelPosition=bottom;verticalAlign=top;align=center;html=1;fontSize=12;fontStyle=0;aspect=fixed;pointerEvents=1;shape=mxgraph.aws4.users;movable=0;resizable=0;rotatable=0;deletable=0;editable=0;connectable=0;" parent="1" vertex="1">
          <mxGeometry x="54" y="10" width="78" height="78" as="geometry" />
        </mxCell>
        <mxCell id="a-tuO8HBzbW937ymj3ow-29" value="" style="sketch=0;html=1;dashed=0;whitespace=wrap;fillColor=#2875E2;strokeColor=#ffffff;points=[[0.005,0.63,0],[0.1,0.2,0],[0.9,0.2,0],[0.5,0,0],[0.995,0.63,0],[0.72,0.99,0],[0.5,1,0],[0.28,0.99,0]];verticalLabelPosition=bottom;align=center;verticalAlign=top;shape=mxgraph.kubernetes.icon;prIcon=deploy;movable=0;resizable=0;rotatable=0;deletable=0;editable=0;connectable=0;" parent="1" vertex="1">
          <mxGeometry x="210" y="25" width="50" height="48" as="geometry" />
        </mxCell>
        <mxCell id="LSmRaalK0-2D8X_RdsmS-1" value="" style="edgeStyle=orthogonalEdgeStyle;rounded=0;orthogonalLoop=1;jettySize=auto;html=1;movable=0;resizable=0;rotatable=0;deletable=0;editable=0;connectable=0;endArrow=none;" edge="1" parent="1" source="a-tuO8HBzbW937ymj3ow-14" target="a-tuO8HBzbW937ymj3ow-29">
          <mxGeometry relative="1" as="geometry">
            <mxPoint x="132" y="49" as="sourcePoint" />
            <mxPoint x="300" y="49" as="targetPoint" />
          </mxGeometry>
        </mxCell>
        <mxCell id="LSmRaalK0-2D8X_RdsmS-4" value="" style="shape=image;verticalLabelPosition=bottom;labelBackgroundColor=default;verticalAlign=top;aspect=fixed;imageAspect=0;image=data:image/svg+xml,PHN2ZyB4bWxucz0iaHR0cDovL3d3dy53My5vcmcvMjAwMC9zdmciIHZlcnNpb249IjEuMSIgaWQ9InN2ZzIiIGhlaWdodD0iNzAxLjk2NjM3IiB3aWR0aD0iNzIyLjg0NTciIHZpZXdCb3g9IjAgMCA3MjIuODQ1NyA3MDEuOTY2MzciPiYjeGE7ICA8ZGVmcyBpZD0iZGVmczQiLz4mI3hhOyAgJiN4YTsgIDxtZXRhZGF0YSBpZD0ibWV0YWRhdGE3Ij4mI3hhOyAgICAmI3hhOyAgICAgICYjeGE7ICAgICAgICBpbWFnZS9zdmcreG1sJiN4YTsgICAgICAgICYjeGE7ICAgICAgICAmI3hhOyAgICAgICYjeGE7ICAgICYjeGE7ICA8L21ldGFkYXRhPiYjeGE7ICA8ZyB0cmFuc2Zvcm09InRyYW5zbGF0ZSgtNi4zMjYwOTQyLC0xNzQuNzUyNCkiIGlkPSJsYXllcjEiPiYjeGE7ICAgIDxnIGlkPSJnMzA1MiI+JiN4YTsgICAgICA8cGF0aCBpZD0icGF0aDMwNTUiIGQ9Im0gMzY1LjMxMjUsMTg0LjgxMjUgYSA0Ni43MjQ2MjEsNDYuMzQyMjQ2IDAgMCAwIC0xNy45MDYyNSw0LjUzMTI1IGwgLTI0NC4zNDM3NSwxMTYuNzUgYSA0Ni43MjQ2MjEsNDYuMzQyMjQ2IDAgMCAwIC0yNS4yODEyNSwzMS40Mzc1IEwgMTcuNSw1OTkuNzgxMjUgQSA0Ni43MjQ2MjEsNDYuMzQyMjQ2IDAgMCAwIDIzLjg0Mzc1LDYzNS4zMTI1IDQ2LjcyNDYyMSw0Ni4zNDIyNDYgMCAwIDAgMjYuNSw2MzkgbCAxNjkuMTI1LDIxMC4yODEyNSBhIDQ2LjcyNDYyMSw0Ni4zNDIyNDYgMCAwIDAgMzYuNTMxMjUsMTcuNDM3NSBMIDUwMy4zNzUsODY2LjY1NjI1IEEgNDYuNzI0NjIxLDQ2LjM0MjI0NiAwIDAgMCA1MzkuOTA2MjUsODQ5LjI1IEwgNzA4Ljk2ODc1LDYzOC45Mzc1IEEgNDYuNzI0NjIxLDQ2LjM0MjI0NiAwIDAgMCA3MTgsNTk5LjcxODc1IGwgLTYwLjM3NSwtMjYyLjI1IGEgNDYuNzI0NjIxLDQ2LjM0MjI0NiAwIDAgMCAtMjUuMjgxMjUsLTMxLjQzNzUgbCAtMjQ0LjM3NSwtMTE2LjY4NzUgQSA0Ni43MjQ2MjEsNDYuMzQyMjQ2IDAgMCAwIDM2NS4zMTI1LDE4NC44MTI1IHoiIHN0eWxlPSJmaWxsOiMzMjZjZTU7ZmlsbC1vcGFjaXR5OjE7c3Ryb2tlOiNmZmZmZmY7c3Ryb2tlLXdpZHRoOjA7c3Ryb2tlLW1pdGVybGltaXQ6NDtzdHJva2Utb3BhY2l0eToxO3N0cm9rZS1kYXNoYXJyYXk6bm9uZSIvPiYjeGE7ICAgICAgPHBhdGggc3R5bGU9ImZvbnQtc2l6ZTptZWRpdW07Zm9udC1zdHlsZTpub3JtYWw7Zm9udC12YXJpYW50Om5vcm1hbDtmb250LXdlaWdodDpub3JtYWw7Zm9udC1zdHJldGNoOm5vcm1hbDt0ZXh0LWluZGVudDowO3RleHQtYWxpZ246c3RhcnQ7dGV4dC1kZWNvcmF0aW9uOm5vbmU7bGluZS1oZWlnaHQ6bm9ybWFsO2xldHRlci1zcGFjaW5nOm5vcm1hbDt3b3JkLXNwYWNpbmc6bm9ybWFsO3RleHQtdHJhbnNmb3JtOm5vbmU7ZGlyZWN0aW9uOmx0cjtibG9jay1wcm9ncmVzc2lvbjp0Yjt3cml0aW5nLW1vZGU6bHItdGI7dGV4dC1hbmNob3I6c3RhcnQ7YmFzZWxpbmUtc2hpZnQ6YmFzZWxpbmU7Y29sb3I6IzAwMDAwMDtmaWxsOiNmZmZmZmY7ZmlsbC1vcGFjaXR5OjE7c3Ryb2tlOiNmZmZmZmY7c3Ryb2tlLXdpZHRoOjAuMjU7c3Ryb2tlLW1pdGVybGltaXQ6NDtzdHJva2Utb3BhY2l0eToxO3N0cm9rZS1kYXNoYXJyYXk6bm9uZTttYXJrZXI6bm9uZTt2aXNpYmlsaXR5OnZpc2libGU7ZGlzcGxheTppbmxpbmU7b3ZlcmZsb3c6dmlzaWJsZTtlbmFibGUtYmFja2dyb3VuZDphY2N1bXVsYXRlO2ZvbnQtZmFtaWx5OlNhbnM7LWlua3NjYXBlLWZvbnQtc3BlY2lmaWNhdGlvbjpTYW5zIiBkPSJtIDM2Ny43MzM2NiwyNzQuMDU5NjIgYyAtOC4wNzY5Niw4LjJlLTQgLTE0LjYyNTk2LDcuMjc1OTEgLTE0LjYyNSwxNi4yNSAxZS01LDAuMTM3NzMgMC4wMjgyLDAuMjY5MzQgMC4wMzEyLDAuNDA2MjUgLTAuMDExOSwxLjIxOTM2IC0wLjA3MDgsMi42ODgzNiAtMC4wMzEyLDMuNzUgMC4xOTI2Miw1LjE3NiAxLjMyMDksOS4xMzc0OSAyLDEzLjkwNjI1IDEuMjMwMjgsMTAuMjA2NjYgMi4yNjExNywxOC42NjczNiAxLjYyNSwyNi41MzEyNSAtMC42MTg2OSwyLjk2NTQgLTIuODAyODgsNS42Nzc0MSAtNC43NSw3LjU2MjUgbCAtMC4zNDM3NSw2LjE4NzUgYyAtOC43NzY4MiwwLjcyNzE3IC0xNy42MTIzNSwyLjA1ODc0IC0yNi40Mzc1LDQuMDYyNSAtMzcuOTc0NjEsOC42MjIxOCAtNzAuNjcwMDgsMjguMTgzMDcgLTk1LjU2MjUsNTQuNTkzNzUgLTEuNjE1MjIsLTEuMTAxOTMgLTQuNDQxMDMsLTMuMTI5MTQgLTUuMjgxMywtMy43NSAtMi42MTExNywwLjM1MjYyIC01LjI1MDIxLDEuMTU4MjkgLTguNjg3NSwtMC44NDM3NSAtNi41NDQ5MSwtNC40MDU2MyAtMTIuNTA1ODcsLTEwLjQ4NjkzIC0xOS43MTg3NSwtMTcuODEyNSAtMy4zMDQ5OCwtMy41MDQxOSAtNS42OTgzMiwtNi44NDEwMSAtOS42MjUsLTEwLjIxODc1IC0wLjg5MTcyLC0wLjc2NzA3IC0yLjI1MjU4LC0xLjgwNDU1IC0zLjI1LC0yLjU5Mzc1IC0zLjA2OTg4LC0yLjQ0NzU3IC02LjY5MDcsLTMuNzI0MDIgLTEwLjE4NzUsLTMuODQzNzUgLTQuNDk1ODksLTAuMTUzOTQgLTguODIzOTQsMS42MDM4NSAtMTEuNjU2MjUsNS4xNTYyNSAtNS4wMzUyMSw2LjMxNTM4IC0zLjQyMzEyLDE1Ljk2ODA1IDMuNTkzNzUsMjEuNTYyNSAwLjA3MTIsMC4wNTY3IDAuMTQ3MDIsMC4xMDA3OCAwLjIxODc1LDAuMTU2MjUgMC45NjQyMiwwLjc4MTYyIDIuMTQ0OTYsMS43ODMxMyAzLjAzMTI1LDIuNDM3NSA0LjE2Njg3LDMuMDc2NTUgNy45NzMyLDQuNjUxNDUgMTIuMTI1LDcuMDkzNzUgOC43NDcsNS40MDE4MSAxNS45OTgzNyw5Ljg4MDg2IDIxLjc1LDE1LjI4MTI1IDIuMjQ2MDIsMi4zOTQxNyAyLjYzODU4LDYuNjEyOTIgMi45Mzc1LDguNDM3NSBsIDQuNjg3NSw0LjE4NzUgYyAtMjUuMDkzNDIsMzcuNzYzNjggLTM2LjcwNjg2LDg0LjQwOTQ2IC0yOS44NDM3LDEzMS45Mzc1IGwgLTYuMTI1LDEuNzgxMjUgYyAtMS42MTQzLDIuMDg0NjEgLTMuODk1NDEsNS4zNjQ3NCAtNi4yODEzLDYuMzQzNzUgLTcuNTI1MTMsMi4zNzAyMSAtMTUuOTk0MjQsMy4yNDA1OSAtMjYuMjE4NzUsNC4zMTI1IC00LjgwMDMxLDAuMzk5MTUgLTguOTQyMTgsMC4xNjA5NSAtMTQuMDMxMjUsMS4xMjUgLTEuMTIwMDgsMC4yMTIxOCAtMi42ODA3MiwwLjYxODc3IC0zLjkwNjI1LDAuOTA2MjUgLTAuMDQyNiwwLjAwOSAtMC4wODI0LDAuMDIxNiAtMC4xMjUsMC4wMzEyIC0wLjA2NjgsMC4wMTU1IC0wLjE1NDU2LDAuMDQ3OSAtMC4yMTg3NSwwLjA2MjUgLTguNjIwMTQsMi4wODI3OSAtMTQuMTU3NzQsMTAuMDA2IC0xMi4zNzUsMTcuODEyNSAxLjc4MzE2LDcuODA4MzMgMTAuMjAzMTQsMTIuNTU2NzcgMTguODc1LDEwLjY4NzUgMC4wNjI2LC0wLjAxNDMgMC4xNTM1LC0wLjAxNjcgMC4yMTg3NSwtMC4wMzEyIDAuMDk3OSwtMC4wMjI0IDAuMTg0MDksLTAuMDY5OSAwLjI4MTI1LC0wLjA5MzcgMS4yMDg4NSwtMC4yNjUzNiAyLjcyMzc3LC0wLjU2MDYgMy43ODEyNSwtMC44NDM3NSA1LjAwMzM0LC0xLjMzOTYzIDguNjI2OTQsLTMuMzA3OTYgMTMuMTI1LC01LjAzMTI1IDkuNjc2OTQsLTMuNDcwNzcgMTcuNjkxNzMsLTYuMzcwMjIgMjUuNSwtNy41IDMuMjYxMTgsLTAuMjU1NDIgNi42OTcxMSwyLjAxMjE2IDguNDA2MjUsMi45Njg3NSBsIDYuMzc1LC0xLjA5Mzc1IGMgMTQuNjcwMTgsNDUuNDgyODIgNDUuNDE0MTYsODIuMjQ1MDIgODQuMzQzNzUsMTA1LjMxMjUgbCAtMi42NTYyNSw2LjM3NSBjIDAuOTU3NDIsMi40NzU0MiAyLjAxMzQxLDUuODI0NyAxLjMwMDIyLDguMjY5MzIgLTIuODM4NjgsNy4zNjEyIC03LjcwMDk3LDE1LjEzMDk3IC0xMy4yMzc3MiwyMy43OTMxOCAtMi42ODA4NSw0LjAwMTkyIC01LjQyNDUzLDcuMTA3NjEgLTcuODQzNzUsMTEuNjg3NSAtMC41Nzg5LDEuMDk1ODkgLTEuMzE2MTgsMi43NzkzMiAtMS44NzUsMy45Mzc1IC0zLjc1ODg0LDguMDQyMzYgLTEuMDAxNjQsMTcuMzA1MiA2LjIxODc1LDIwLjc4MTI1IDcuMjY1NzUsMy40OTc4OCAxNi4yODQ0NywtMC4xOTEzNCAyMC4xODc1LC04LjI1IDAuMDA2LC0wLjAxMTQgMC4wMjU3LC0wLjAxOTggMC4wMzEyLC0wLjAzMTIgMC4wMDQsLTAuMDA5IC0wLjAwNCwtMC4wMjI1IDAsLTAuMDMxMiAwLjU1NTkzLC0xLjE0MjU1IDEuMzQzNTMsLTIuNjQ0MzcgMS44MTI1LC0zLjcxODc1IDIuMDcyMTMsLTQuNzQ3MDIgMi43NjE2MSwtOC44MTUwNiA0LjIxODc1LC0xMy40MDYyNSAzLjg2OTYyLC05LjcyMDE0IDUuOTk1NjcsLTE5LjkxOTAzIDExLjMyMjU4LC0yNi4yNzQxMSAxLjQ1ODY4LC0xLjc0MDIzIDMuODM2ODEsLTIuNDA5NSA2LjMwMjQyLC0zLjA2OTY0IGwgMy4zMTI1LC02IGMgMzMuOTM4MjQsMTMuMDI2OCA3MS45MjY2NiwxNi41MjI0NiAxMDkuODc1LDcuOTA2MjUgOC42NTY5NywtMS45NjU1NyAxNy4wMTQ0NCwtNC41MDk0NSAyNS4wOTM3NSwtNy41NjI1IDAuOTMwOTgsMS42NTEzMyAyLjY2MTEzLDQuODI1NyAzLjEyNSw1LjYyNSAyLjUwNTU5LDAuODE1MTggNS4yNDA0NCwxLjIzNjE0IDcuNDY4NzUsNC41MzEyNSAzLjk4NTM5LDYuODA4OTggNi43MTA5LDE0Ljg2NDE2IDEwLjAzMTI1LDI0LjU5Mzc1IDEuNDU3MzgsNC41OTExMSAyLjE3NzYyLDguNjU5MzMgNC4yNSwxMy40MDYyNSAwLjQ3MjM0LDEuMDgxOTUgMS4yNTYsMi42MDQ4NiAxLjgxMjUsMy43NSAzLjg5NDgyLDguMDg0ODQgMTIuOTQyMTIsMTEuNzg2NjcgMjAuMjE4NzUsOC4yODEyNSA3LjIxOTUsLTMuNDc3OSA5Ljk3OTc0LC0xMi43Mzk5IDYuMjE4NzUsLTIwLjc4MTI1IC0wLjU1ODg5LC0xLjE1ODE0IC0xLjMyNzMsLTIuODQxNjQgLTEuOTA2MjUsLTMuOTM3NSAtMi40MTk0NiwtNC41Nzk3NiAtNS4xNjI3LC03LjY1NDQ4IC03Ljg0Mzc1LC0xMS42NTYyNSAtNS41MzcyMSwtOC42NjE5MiAtMTAuMTI5NjgsLTE1Ljg1NzcgLTEyLjk2ODc1LC0yMy4yMTg3NSAtMS4xODcxMSwtMy43OTY1NyAwLjIwMDI4LC02LjE1Nzc0IDEuMTI1LC04LjYyNSAtMC41NTM3OCwtMC42MzQ3NyAtMS43Mzg4MSwtNC4yMjAwOSAtMi40Mzc1LC01LjkwNjI1IDQwLjQ1NzQsLTIzLjg4ODE2IDcwLjI5ODU2LC02Mi4wMjEyOSA4NC4zMTI1LC0xMDYuMDYyNSAxLjg5MjQsMC4yOTc0MiA1LjE4MTU0LDAuODc5MzYgNi4yNSwxLjA5Mzc1IDIuMTk5NTQsLTEuNDUwNyA0LjIyMTk0LC0zLjM0MzUyIDguMTg3NSwtMy4wMzEyNSA3LjgwODMyLDEuMTI5MzcgMTUuODIyODgsNC4wMjk3MyAyNS41LDcuNSA0LjQ5ODE1LDEuNzIzMDYgOC4xMjE2LDMuNzIzMTMgMTMuMTI1LDUuMDYyNSAxLjA1NzQ5LDAuMjgzMDkgMi41NzIzOCwwLjU0NzIgMy43ODEyNSwwLjgxMjUgMC4wOTcyLDAuMDIzOCAwLjE4MzMsMC4wNzE0IDAuMjgxMjUsMC4wOTM3IDAuMDY1MywwLjAxNDYgMC4xNTYxNSwwLjAxNjkgMC4yMTg3NSwwLjAzMTIgOC42NzIzNiwxLjg2Njk1IDE3LjA5Mzg0LC0yLjg3ODcxIDE4Ljg3NSwtMTAuNjg3NSAxLjc4MDc0LC03LjgwNjk2IC0zLjc1NDMsLTE1LjczMjAxIC0xMi4zNzUsLTE3LjgxMjUgLTEuMjUzOTMsLTAuMjg1MTMgLTMuMDMyMjUsLTAuNzY5MzggLTQuMjUsLTEgLTUuMDg5MTIsLTAuOTYzNzggLTkuMjMwOTIsLTAuNzI2MSAtMTQuMDMxMjUsLTEuMTI1IC0xMC4yMjQ1NiwtMS4wNzEzOCAtMTguNjkzNSwtMS45NDI2OSAtMjYuMjE4NzUsLTQuMzEyNSAtMy4wNjgyNiwtMS4xOTAyOCAtNS4yNTEwMywtNC44NDEyNCAtNi4zMTI1NSwtNi4zNDM3NSBsIC01LjkwNjI1LC0xLjcxODc1IGMgMy4wNjIyNiwtMjIuMTU0NDIgMi4yMzY1NSwtNDUuMjExMzQgLTMuMDYyNSwtNjguMjgxMjUgLTUuMzQ4MzksLTIzLjI4NDcxIC0xNC44MDAzNywtNDQuNTgwODQgLTI3LjQwNjI1LC02My4zNDM3NSAxLjUxNTA1LC0xLjM3NzI5IDQuMzc2MTksLTMuOTEwOTEgNS4xODc1LC00LjY1NjI1IDAuMjM3MTYsLTIuNjI0MTcgMC4wMzM0LC01LjM3NTUzIDIuNzUsLTguMjgxMjUgNS43NTEzNCwtNS40MDA2OSAxMy4wMDMyOSwtOS44Nzg5OCAyMS43NSwtMTUuMjgxMjUgNC4xNTE2NywtMi40NDI1MiA3Ljk4OTU0LC00LjAxNjk4IDEyLjE1NjI1LC03LjA5Mzc1IDAuOTQyMjUsLTAuNjk1NzYgMi4yMjg5LC0xLjc5NzU5IDMuMjE4NzUsLTIuNTkzNzUgNy4wMTUzOCwtNS41OTYzMyA4LjYzMDU4LC0xNS4yNDg0MiAzLjU5Mzc1LC0yMS41NjI1IC01LjAzNjgzLC02LjMxNDA4IC0xNC43OTcxMiwtNi45MDg4MyAtMjEuODEyNSwtMS4zMTI1IC0wLjk5ODU2LDAuNzkwODUgLTIuMzUzNTMsMS44MjI1MiAtMy4yNSwyLjU5Mzc1IC0zLjkyNjUsMy4zNzc5NiAtNi4zNTE0NSw2LjcxNDM5IC05LjY1NjI1LDEwLjIxODc1IC03LjIxMjQ5LDcuMzI1OTUgLTEzLjE3NDA3LDEzLjQzNzc3IC0xOS43MTg3NSwxNy44NDM3NSAtMi44MzYwMSwxLjY1MTA2IC02Ljk4OTk2LDEuMDc5NzggLTguODc1MDUsMC45Njg3NSBsIC01LjU2MjUsMy45Njg3NSBjIC0zMS43MTg4LC0zMy4yNjA1NyAtNzQuOTA0NjYsLTU0LjUyNTQ2IC0xMjEuNDA2MDUsLTU4LjY1NjMgLTAuMTMwMDYsLTEuOTQ4NzIgLTAuMzAwNDUsLTUuNDcxMTcgLTAuMzQzNzUsLTYuNTMxMjUgLTEuOTAzNzEsLTEuODIxNjUgLTQuMjAzNDIsLTMuMzc2ODYgLTQuNzgxMjUsLTcuMzEyNSAtMC42MzYxNywtNy44NjM4OSAwLjQyNTk3LC0xNi4zMjQ1OSAxLjY1NjI1LC0yNi41MzEyNSAwLjY3OTEsLTQuNzY4NzYgMS44MDczOCwtOC43MzAyNSAyLC0xMy45MDYyNSAwLjA0MzgsLTEuMTc2NjMgLTAuMDI2NSwtMi44ODQwMSAtMC4wMzEyLC00LjE1NjI1IC05LjZlLTQsLTguOTc0MDkgLTYuNTQ4MDQsLTE2LjI1MDgyIC0xNC42MjUsLTE2LjI1IHogbSAtMTguMzEyNSwxMTMuNDM3NSAtNC4zNDM3NSw3Ni43MTg3NSAtMC4zMTI1LDAuMTU2MjUgYyAtMC4yOTEzNCw2Ljg2MzM1IC01LjkzOTk2LDEyLjM0Mzc1IC0xMi44NzUsMTIuMzQzNzUgLTIuODQwODEsMCAtNS40NjI5NCwtMC45MTIyOSAtNy41OTM3NSwtMi40Njg3NSBsIC0wLjEyNSwwLjA2MjUgLTYyLjkwNjI1LC00NC41OTM3NSBjIDE5LjMzMzY1LC0xOS4wMTExNSA0NC4wNjI5MSwtMzMuMDYwMzkgNzIuNTYyNSwtMzkuNTMxMjUgNS4yMDU5OSwtMS4xODIwMyAxMC40MDk2NiwtMi4wNTkxIDE1LjU5Mzc1LC0yLjY4NzUgeiBtIDM2LjY1NjI1LDAgYyAzMy4yNzM0Nyw0LjA5MjMyIDY0LjA0NTAxLDE5LjE1ODgyIDg3LjYyNSw0Mi4yNSBsIC02Mi41LDQ0LjMxMjUgLTAuMjE4NzUsLTAuMDkzNyBjIC01LjU0NzQ1LDQuMDUxNjkgLTEzLjM2MzQzLDMuMDQ2MzkgLTE3LjY4NzUsLTIuMzc1IC0xLjc3MTMyLC0yLjIyMDk2IC0yLjcwMDcyLC00LjgzMjM5IC0yLjgxMjUsLTcuNDY4NzUgbCAtMC4wNjI1LC0wLjAzMTIgeiBtIC0xNDcuNjI1LDcwLjg3NSA1Ny40Mzc1LDUxLjM3NSAtMC4wNjI1LDAuMzEyNSBjIDUuMTg0MzcsNC41MDY5NyA1Ljk0ODg4LDEyLjMyNzk0IDEuNjI1LDE3Ljc1IC0xLjc3MTIsMi4yMjEwNSAtNC4xNDIwOCwzLjcxMDc0IC02LjY4NzUsNC40MDYyNSBsIC0wLjA2MjUsMC4yNSAtNzMuNjI1LDIxLjI1IGMgLTMuNzQ3MjgsLTM0LjI2NTE3IDQuMzI4NTUsLTY3LjU3MzY0IDIxLjM3NSwtOTUuMzQzNzUgeiBtIDI1OC4xNTYyNSwwLjAzMTIgYyA4LjUzNDEsMTMuODMyNTYgMTQuOTk2NTUsMjkuMjgyMTQgMTguODQzNzUsNDYuMDMxMjUgMy44MDEwNiwxNi41NDgyOCA0Ljc1NDk5LDMzLjA2Njk3IDMuMTg3NSw0OS4wMzEyNSBsIC03NCwtMjEuMzEyNSAtMC4wNjI1LC0wLjMxMjUgYyAtNi42MjY1LC0xLjgxMTA0IC0xMC42OTg5MywtOC41NTE2MiAtOS4xNTYyNSwtMTUuMzEyNSAwLjYzMjAzLC0yLjc2OTYyIDIuMTAyMjIsLTUuMTEyNjQgNC4wOTM3NSwtNi44NDM3NSBsIC0wLjAzMTIsLTAuMTU2MjUgNTcuMTI1LC01MS4xMjUgeiBtIC0xNDAuNjU2MjUsNTUuMzEyNSAyMy41MzEyNSwwIDE0LjYyNSwxOC4yODEyNSAtNS4yNSwyMi44MTI1IC0yMS4xMjUsMTAuMTU2MjUgLTIxLjE4NzUsLTEwLjE4NzUgLTUuMjUsLTIyLjgxMjUgeiBtIDc1LjQzNzUsNjIuNTYyNSBjIDAuOTk5OTcsLTAuMDUwNSAxLjk5NTU4LDAuMDM5NiAyLjk2ODc1LDAuMjE4NzUgbCAwLjEyNSwtMC4xNTYyNSA3Ni4xNTYyNSwxMi44NzUgYyAtMTEuMTQ1NSwzMS4zMTMxIC0zMi40NzI4MSw1OC40NDAxOCAtNjAuOTY4NzUsNzYuNTkzNzUgbCAtMjkuNTYyNSwtNzEuNDA2MjUgMC4wOTM3LC0wLjEyNSBjIC0yLjcxNTYxLC02LjMwOTk5IDAuMDAyLC0xMy43MDk1NiA2LjI1LC0xNi43MTg3NSAxLjU5OTY1LC0wLjc3MDQxIDMuMjcwODksLTEuMTk3MDEgNC45Mzc1LC0xLjI4MTI1IHogbSAtMTI3LjkwNjI1LDAuMzEyNSBjIDUuODExNzQsMC4wODE1IDExLjAyNDYyLDQuMTE1MjUgMTIuMzc1LDEwLjAzMTI1IDAuNjMyMTksMi43Njk1OCAwLjMyNDUsNS41MTM3NSAtMC43MTg3NSw3LjkzNzUgbCAwLjIxODc1LDAuMjgxMjUgLTI5LjI1LDcwLjY4NzUgYyAtMjcuMzQ3MTYsLTE3LjU0ODYgLTQ5LjEyOTI3LC00My44MjQwMyAtNjAuNzgxMjUsLTc2LjA2MjQ1IGwgNzUuNSwtMTIuODEyNSAwLjEyNSwwLjE1NjI1IGMgMC44NDQ1MSwtMC4xNTU0MSAxLjcwMSwtMC4yMzA0IDIuNTMxMjUsLTAuMjE4NzUgeiBtIDYzLjc4MTI1LDMwLjk2ODggYyAyLjAyNDQ1LC0wLjA3NDQgNC4wNzg2NSwwLjM0MDk4IDYuMDMxMjUsMS4yODEyNSAyLjU1OTUxLDEuMjMyNTMgNC41MzY3MywzLjE3MzE5IDUuNzgxMjUsNS41IGwgMC4yODEyNSwwIDM3LjIxODc1LDY3LjI1IGMgLTQuODMwMjksMS42MTkyMyAtOS43OTYwOSwzLjAwMzA4IC0xNC44NzUsNC4xNTYyNSAtMjguNDY0NTMsNi40NjI5IC01Ni44Mzg2Miw0LjUwNDY3IC04Mi41MzEyNSwtNC4yNSBsIDM3LjEyNSwtNjcuMTI1IDAuMDYyNSwwIGMgMi4yMjc2NywtNC4xNjQ0MSA2LjQ1MjQ3LC02LjY0ODg3IDEwLjkwNjI1LC02LjgxMjUgeiIgaWQ9InBhdGgzMDU5Ii8+JiN4YTsgICAgPC9nPiYjeGE7ICA8L2c+JiN4YTs8L3N2Zz4=;movable=0;resizable=0;rotatable=0;deletable=0;editable=0;connectable=0;" vertex="1" parent="1">
          <mxGeometry x="204.11" y="130" width="61.79" height="60" as="geometry" />
        </mxCell>
      </root>
    </mxGraphModel>
  </diagram>
</mxfile>
